<svg width="225" height="350" viewBox="0 0 225 350" fill="none" xmlns="http://www.w3.org/2000/svg">
<path fill-rule="evenodd" clip-rule="evenodd" d="M224.956 37.1588C224.956 29.821 221.032 23.9653 215.581 22.7739L73.057 1.15286C63.815 -0.298432 58.6336 -0.600308 49.3927 1.54518C31.5117 6.50785 27.9524 7.96755 10.2914 13.6634C2.50016 15.5814 0 21.3354 0 28.9347L0.159895 324.625C0.159895 331.599 4.73868 336.147 11.0036 338.24C20.1903 341.378 30.7287 344.822 41.0346 348.018C48.099 350.242 55.7739 350.242 65.0623 349.704C74.9903 349.123 133.192 339.591 214.781 328.722C221.25 327.865 224.927 322.591 224.927 317.302L225 37.1588H224.956ZM190.463 276.166C193.137 275.876 199.78 272.868 199.78 264.993V86.0385C199.969 82.4931 197.455 75.9981 190.158 75.4023L108.917 63.8799C101.62 63.5747 97.7098 68.8783 97.7098 73.7749V278.506C98.0151 282.051 100.733 287.558 108.016 286.381L190.463 276.166Z" fill="white"/>
</svg>
