<svg width="96" height="100" viewBox="0 0 96 100" fill="none" xmlns="http://www.w3.org/2000/svg">
<path d="M77.376 62.7727C77.376 64.1575 76.6598 65.4437 75.4827 66.173L50.0998 81.899C48.8128 82.6964 47.1858 82.6988 45.8964 81.9052L20.3352 66.1715C19.1525 65.4435 18.432 64.154 18.432 62.7651V40.8243C18.432 37.7239 21.8067 35.8022 24.473 37.3842L46.0477 50.1847C47.3098 50.9336 48.8807 50.9311 50.1405 50.1784L87.3964 27.917C89.3606 26.7432 89.3405 23.8909 87.3599 22.745L50.0574 1.16256C48.8148 0.443669 47.2824 0.445714 46.0418 1.16792L6.40359 24.2429C5.17298 24.9593 4.416 26.2759 4.416 27.6998V71.5349C4.416 72.9401 5.1534 74.2423 6.35848 74.9651L46.0917 98.7978C47.3299 99.5405 48.8724 99.5582 50.1274 98.8441L89.6582 76.3504C90.9081 75.6392 91.68 74.3119 91.68 72.8738V46.1786C91.68 44.6141 89.9646 43.6554 88.632 44.4752L79.28 50.2286C78.0968 50.9566 77.376 52.2463 77.376 53.6355V62.7727Z" fill="white"/>
</svg>
