<svg width="318" height="333" viewBox="0 0 318 333" fill="none" xmlns="http://www.w3.org/2000/svg">
<path d="M189.183 8.24248C177.878 0.437501 166.765 0 155.635 0C137.82 0 121.703 6.94748 109.208 20.8075L66.7006 75.5825C62.8331 80.8325 61.2581 85.3475 61.8356 91.7355C62.7106 100.765 67.9781 107.1 75.4506 110.705L127.198 136.78C138.66 141.89 146.623 136.429 147.008 124.145L150.928 45.325C151.26 39.4275 154.2 36.75 158.19 36.75C162.408 36.75 165.033 40.3725 165.435 46.935L169.653 123.777C170.405 137.602 179.838 142.135 191.86 136.675L273.76 95.3405C281.81 90.685 285.8 85.785 285.8 78.2775C285.8 70.4725 280.428 65.1525 273.113 60.6375L189.183 8.24248Z" fill="white"/>
<path d="M311.858 194.092L283.613 136.377C278.958 126.63 270.173 123.707 262.385 124.197C257.223 124.53 253.723 126.577 247.738 130.777L205.073 157.115C198.965 161.507 194.975 165.445 195.36 171.132C195.588 175.84 198.195 179.095 203.515 182.647L270.978 227.097C276.298 230.527 277.05 234.08 275.895 236.617C273.673 241.937 269.14 241.815 262.508 238.647L190.915 202.405C178.263 196.49 169.215 202.282 168.34 218.54L164.35 310.905C163.79 323.435 173.118 332.797 184.423 332.237C187.923 332.027 191.16 330.4 194.398 328.405L285.468 278.547C308.41 265.545 323.6 233.677 314.553 203.997C313.66 200.567 312.785 197.26 311.858 194.092Z" fill="white"/>
<path d="M146.221 216.317C145.188 202.964 136.806 197.977 125.921 203.297L50.9159 240.764C45.8759 242.882 42.3934 240.887 40.6959 237.824C38.3509 233.309 40.6959 229.249 45.6134 226.572L113.076 182.507C119.568 177.992 121.511 174.317 120.863 167.632C119.988 161.594 114.668 157.534 108.036 153.457L33.5384 106.364C20.0109 98.5595 4.27839 101.447 3.00089 120.959L0.0258927 224.822C-0.849107 253.522 20.5184 283.307 54.1534 288.767L124.573 295.224C140.043 296.204 148.951 284.637 148.443 273.209L146.221 216.317Z" fill="white"/>
</svg>
