<svg width="303" height="330" viewBox="0 0 303 330" fill="none" xmlns="http://www.w3.org/2000/svg">
<path d="M139.05 17.8165C144.202 0.644299 160.516 -4.50737 175.112 4.07874L260.973 53.8782C268.701 58.1712 266.983 65.0401 258.397 67.6159L124.454 101.102C116.727 102.819 113.292 98.5259 115.868 89.9398L139.05 17.8165Z" fill="white"/>
<path d="M272.213 80.8177C289.66 76.6931 302.278 88.2452 302.141 105.179L301.944 204.437C302.089 213.275 295.282 215.223 288.758 209.075L192.787 109.819C187.436 103.986 189.437 98.865 198.161 96.8027L272.213 80.8177Z" fill="white"/>
<path d="M284.233 227.64C296.529 240.688 292.834 257.392 278.1 265.739L192.042 315.197C184.46 319.743 179.37 314.822 181.432 306.098L219.404 173.357C221.781 165.806 227.216 164.978 233.364 171.502L284.233 227.64Z" fill="white"/>
<path d="M163.092 311.461C157.94 328.634 141.626 333.785 127.03 325.199L41.1689 275.4C33.4414 271.107 35.1586 264.238 43.7447 261.662L177.688 228.176C185.415 226.459 188.85 230.752 186.274 239.338L163.092 311.461Z" fill="white"/>
<path d="M29.9292 248.46C12.4818 252.585 -0.136482 241.033 0.00111443 224.099L0.19815 124.841C0.0522971 116.003 6.85954 114.055 13.3833 120.203L109.354 219.459C114.705 225.292 112.705 230.413 103.981 232.475L29.9292 248.46Z" fill="white"/>
<path d="M17.9088 101.638C5.61306 88.5903 9.30839 71.8865 24.0424 63.5387L110.1 14.0806C117.682 9.53489 122.772 14.4565 120.71 23.1802L82.7377 155.921C80.3611 163.472 74.926 164.3 68.7782 157.776L17.9088 101.638Z" fill="white"/>
</svg>
